<?xml version="1.0" standalone="no"?>
<!DOCTYPE svg PUBLIC "-//W3C//DTD SVG 20010904//EN"
 "http://www.w3.org/TR/2001/REC-SVG-20010904/DTD/svg10.dtd">
<svg version="1.0" xmlns="http://www.w3.org/2000/svg"
 width="1024.000000pt" height="1536.000000pt" viewBox="0 0 1024.000000 1536.000000"
 preserveAspectRatio="xMidYMid meet">

<g transform="translate(0.000000,1536.000000) scale(0.100000,-0.100000)"
fill="#000000" stroke="none">
<path d="M4549 15158 c-343 -295 -356 -308 -374 -345 -14 -29 -16 -72 -13
-304 l3 -271 37 -34 38 -34 120 0 120 0 0 -3005 c0 -1653 4 -3005 8 -3005 5 0
47 24 93 53 l84 52 3 137 3 137 -35 68 c-53 104 -56 165 -15 283 17 52 47 131
66 175 l33 79 0 2627 0 2626 153 129 c83 71 301 257 482 413 182 156 359 309
395 339 36 31 72 62 80 69 12 11 -18 13 -177 13 l-191 0 -198 -173 c-110 -95
-284 -244 -389 -331 -190 -160 -386 -327 -437 -374 l-28 -26 0 125 1 124 156
135 c194 167 448 390 528 464 l60 55 -186 1 -186 0 -234 -202z"/>
<path d="M6023 15242 c-76 -64 -366 -310 -645 -545 l-508 -429 0 -2470 0
-2469 26 20 c57 44 145 19 183 -53 8 -14 18 -26 23 -26 4 0 8 1104 8 2453 l0
2453 148 119 c461 373 1292 1054 1292 1061 0 2 -87 4 -194 4 l-195 0 -138
-118z"/>
<path d="M7140 15318 c0 -24 0 -1365 0 -2981 1 -2909 1 -2939 20 -2965 43 -58
62 -156 63 -312 0 -124 -4 -159 -26 -242 -14 -53 -34 -117 -45 -141 l-20 -45
45 -12 c36 -9 119 -43 186 -78 4 -2 7 55 7 127 l0 131 55 0 55 0 0 -178 0
-179 26 -24 c14 -13 46 -52 71 -86 25 -35 49 -63 54 -63 5 0 9 110 9 260 l0
260 95 0 95 0 0 -249 0 -250 -162 -125 c-90 -69 -166 -126 -169 -126 -3 0 -13
24 -22 54 -39 122 -148 244 -270 301 -75 36 -210 65 -297 65 -79 0 -85 6 -51
49 150 189 206 556 118 766 -78 186 -262 354 -441 401 -28 8 -112 18 -186 24
-74 6 -195 18 -268 27 -242 29 -449 7 -547 -59 -145 -100 -203 -260 -124 -344
l21 -23 -26 -118 c-35 -158 -33 -196 13 -230 14 -10 8 -27 -47 -140 -65 -135
-71 -157 -47 -189 9 -12 14 -43 15 -87 l0 -67 -46 -28 c-26 -15 -101 -62 -168
-104 l-121 -76 -3 118 c-2 112 -1 120 23 156 26 38 35 107 15 119 -18 11 -10
25 14 25 14 0 37 11 53 24 22 19 28 32 28 66 0 52 -30 80 -85 80 l-37 0 10 45
c9 38 6 57 -17 137 -16 51 -30 101 -33 111 -6 23 -49 40 -71 28 -11 -6 -32
-57 -56 -134 -37 -120 -38 -125 -22 -155 l17 -32 -41 0 c-53 0 -80 -27 -80
-78 0 -44 18 -65 69 -83 24 -9 30 -15 25 -28 -4 -9 -9 -37 -12 -62 -3 -38 1
-51 22 -76 26 -30 26 -33 26 -196 l0 -164 -147 -94 c-82 -51 -208 -132 -280
-181 -73 -48 -135 -88 -138 -88 -3 0 -5 39 -5 88 0 80 2 89 25 111 20 18 25
33 25 70 0 25 -6 58 -14 72 -12 23 -11 27 5 37 10 7 25 12 33 12 8 0 28 12 45
26 41 34 44 92 5 131 -21 21 -32 25 -66 20 l-40 -5 7 59 c6 49 2 77 -20 157
-31 109 -46 132 -86 132 -34 0 -52 -25 -69 -90 -6 -25 -20 -73 -31 -107 -19
-57 -19 -64 -5 -98 9 -21 16 -41 16 -45 0 -4 -22 -5 -49 -2 -42 4 -50 1 -65
-19 -20 -29 -21 -103 -1 -122 8 -9 32 -21 52 -27 21 -7 41 -15 46 -19 4 -4 0
-28 -9 -54 -19 -56 -13 -106 16 -132 18 -16 20 -31 20 -159 l0 -141 -102 -65
c-57 -36 -179 -115 -273 -177 l-170 -112 -3 59 c-2 49 1 65 20 91 19 25 23 42
21 94 -2 63 -2 64 27 70 37 8 70 49 70 85 0 41 -35 79 -80 86 -37 6 -38 7 -28
34 7 21 3 51 -17 126 -30 109 -45 134 -84 134 -48 0 -57 -15 -94 -142 -19 -64
-23 -96 -17 -117 8 -28 7 -29 -33 -34 -51 -7 -77 -36 -77 -84 0 -40 45 -93 79
-93 25 0 25 0 6 -36 -24 -46 -19 -89 15 -127 29 -34 30 -37 30 -144 l0 -110
-107 -75 c-272 -190 -289 -198 -430 -198 l-83 0 35 45 c76 100 52 211 -60 280
-47 29 -53 30 -154 28 -58 -1 -117 -6 -131 -11 -32 -12 -78 -95 -86 -156 -9
-62 11 -126 53 -176 33 -39 34 -40 11 -40 -40 -1 -103 -36 -140 -79 -74 -87
-120 -211 -138 -376 -6 -49 -15 -135 -21 -190 -15 -131 -26 -156 -84 -188 -45
-26 -115 -50 -115 -41 0 3 7 16 16 30 20 29 14 96 -10 123 -16 17 -15 19 15
31 20 9 38 28 52 57 20 41 20 46 6 71 -12 22 -22 26 -48 24 -29 -2 -31 0 -21
17 14 28 12 123 -4 190 -8 31 -17 81 -21 111 -9 69 -28 100 -60 100 -42 0 -60
-44 -80 -200 -10 -78 -15 -160 -12 -184 6 -40 5 -44 -14 -39 -55 15 -83 -91
-36 -135 13 -12 31 -22 40 -22 20 0 21 -7 2 -40 -17 -29 -20 -96 -5 -105 6 -3
10 -19 10 -34 0 -27 -3 -29 -82 -45 -46 -9 -93 -16 -106 -16 -22 0 -22 1 -8
22 20 29 21 102 1 122 -13 13 -13 15 7 21 40 12 58 36 58 75 0 49 -20 74 -53
68 -23 -4 -25 -3 -17 13 16 28 12 123 -11 263 -22 136 -37 176 -68 176 -43 0
-55 -34 -86 -243 -18 -119 -19 -171 -4 -199 9 -18 8 -19 -10 -13 -76 24 -95
-88 -23 -132 27 -17 28 -20 16 -48 -17 -40 -17 -64 1 -99 18 -35 19 -52 3 -59
-28 -10 -158 -30 -164 -25 -3 4 2 20 10 37 20 38 20 70 1 98 -14 20 -14 23 12
35 60 29 70 110 15 130 -24 9 -27 15 -24 48 2 20 -3 92 -12 159 -18 141 -23
556 -6 566 13 8 13 91 0 115 -9 16 -6 21 15 26 30 7 55 39 55 69 0 22 -32 58
-62 68 -14 5 -16 11 -7 35 8 22 4 50 -15 126 -26 104 -38 126 -66 126 -24 0
-39 -20 -46 -61 -3 -19 -13 -56 -21 -83 -10 -31 -14 -68 -10 -101 5 -52 5 -53
-24 -59 -53 -10 -53 -94 1 -116 18 -8 29 -18 26 -26 -18 -47 -17 -85 4 -128
22 -43 23 -51 17 -263 -3 -122 -13 -270 -23 -336 -13 -93 -14 -123 -5 -144 10
-22 10 -25 -4 -19 -29 11 -55 -12 -55 -49 0 -47 8 -64 41 -81 24 -12 28 -18
19 -34 -15 -29 -12 -106 5 -124 32 -32 25 -36 -89 -56 -78 -13 -78 -13 -66 9
12 23 12 77 1 106 -6 15 -1 24 23 40 53 35 46 115 -10 115 -22 0 -24 3 -17 28
4 15 7 52 6 82 -2 81 -31 261 -44 276 -16 20 -43 17 -63 -5 -21 -23 -69 -289
-63 -343 4 -32 2 -38 -14 -38 -25 0 -44 -41 -35 -75 4 -14 19 -33 35 -43 27
-16 28 -19 15 -42 -18 -33 -17 -55 2 -97 22 -46 13 -54 -86 -68 -73 -11 -80
-10 -74 4 15 37 15 62 0 86 -15 23 -15 25 1 25 67 2 86 130 20 130 -22 0 -23
3 -19 63 4 72 -30 253 -52 275 -9 9 -24 12 -39 8 -30 -7 -38 -29 -62 -169 -16
-95 -16 -132 0 -170 6 -13 4 -16 -9 -11 -9 3 -24 3 -33 -1 -10 -4 -30 -9 -44
-10 -26 -2 -26 -2 -16 38 7 28 7 62 -2 116 -6 42 -14 131 -18 199 -6 111 -4
124 12 136 15 11 17 23 13 78 l-5 65 33 17 c30 14 34 20 34 54 0 44 -14 62
-48 62 -18 0 -23 4 -18 16 17 44 16 71 -4 151 -27 106 -35 123 -59 123 -30 0
-47 -30 -70 -128 -19 -74 -21 -98 -12 -123 14 -41 15 -39 -14 -39 -32 0 -60
-41 -51 -76 4 -14 20 -33 36 -42 24 -14 28 -21 22 -42 -11 -39 -7 -103 6 -108
17 -5 15 -97 -5 -222 -10 -58 -18 -142 -18 -188 0 -67 -3 -82 -15 -82 -45 0
-55 -76 -15 -115 13 -14 29 -25 35 -25 6 0 3 -11 -6 -25 -11 -16 -14 -35 -10
-55 3 -16 9 -43 12 -59 6 -27 5 -28 -45 -35 -27 -4 -57 -14 -66 -22 -15 -15
-20 -78 -9 -108 9 -23 69 -49 93 -41 l21 6 0 -1890 0 -1889 -32 -21 c-36 -21
-105 -91 -132 -131 -14 -21 -16 -66 -16 -370 l0 -345 252 -104 c801 -329 1472
-610 1883 -785 l129 -56 1577 0 1577 0 7 32 c4 18 25 68 47 110 74 144 228
258 393 293 58 12 196 15 793 15 l722 0 0 690 c0 563 3 697 14 724 21 51 76
107 131 132 l50 24 623 0 622 0 0 695 c0 741 0 735 48 788 57 63 82 65 855 66
l517 1 0 441 0 440 -257 -6 c-659 -17 -929 -21 -936 -15 -4 4 -6 51 -5 105 3
89 5 98 23 100 11 2 108 6 215 9 575 18 822 27 888 32 l72 6 0 309 0 309 -72
-5 c-40 -2 -119 -7 -175 -10 l-103 -5 0 2147 0 2148 83 47 c99 57 203 105 237
109 25 4 25 5 28 118 l3 113 -38 -7 c-65 -12 -125 -35 -220 -86 l-93 -49 0 79
c0 71 2 80 20 86 27 8 60 53 60 80 0 13 -17 37 -40 59 -25 23 -40 46 -40 60 0
20 6 24 42 29 27 4 49 14 60 27 21 26 23 85 4 120 -13 23 -12 28 21 73 49 66
56 125 20 161 -28 28 -65 33 -99 15 -29 -15 -34 -4 -20 47 11 42 10 54 -18
140 -16 52 -30 101 -30 110 0 28 -56 74 -89 74 -42 0 -66 -27 -86 -97 -10 -32
-26 -84 -37 -115 -19 -55 -20 -89 -3 -148 6 -21 5 -23 -6 -12 -7 6 -33 12 -56
12 -62 0 -93 -32 -93 -96 0 -42 5 -51 43 -89 42 -43 42 -43 24 -67 -10 -14
-21 -43 -24 -65 -7 -54 25 -92 85 -100 52 -7 56 -30 12 -80 -39 -44 -38 -67 5
-110 l36 -36 -3 -135 -3 -136 -155 -118 c-85 -65 -225 -172 -310 -238 l-155
-120 -3 77 c-2 65 0 78 15 87 69 39 82 93 28 125 -27 16 -35 27 -35 50 0 25 4
30 35 35 58 11 83 76 53 141 -10 23 -8 29 28 66 35 36 39 45 39 90 0 68 -28
93 -98 86 -45 -4 -47 -3 -40 17 12 35 3 106 -24 201 -30 103 -38 120 -70 134
-69 31 -100 -3 -143 -158 -31 -112 -33 -141 -15 -184 7 -16 4 -17 -21 -11 -89
22 -129 -6 -129 -92 0 -52 3 -58 39 -91 34 -32 37 -38 27 -60 -29 -64 -3 -124
60 -138 37 -8 40 -49 5 -76 -13 -10 -29 -32 -36 -49 -11 -27 -10 -33 6 -51 11
-12 29 -25 42 -30 22 -8 22 -12 22 -167 l0 -158 -70 -52 c-68 -51 -71 -52
-138 -52 -38 0 -124 3 -190 7 l-122 6 0 76 c0 57 5 87 20 116 11 22 20 49 20
60 0 11 -9 38 -20 60 -11 22 -20 40 -20 41 0 1 16 8 35 14 41 14 68 49 59 76
-11 30 -46 64 -65 64 -15 0 -17 7 -12 55 8 78 -40 243 -75 256 -34 13 -60 -5
-71 -49 -54 -212 -56 -222 -43 -242 10 -17 10 -20 -2 -20 -27 0 -68 -45 -68
-73 0 -34 28 -67 57 -67 30 0 36 -9 21 -34 -23 -36 -27 -84 -11 -129 8 -23 15
-77 15 -119 l0 -78 -65 0 -65 0 0 265 c0 251 -1 266 -20 285 -25 25 -61 34
-108 27 -71 -12 -72 -17 -72 -308 l0 -259 -95 0 -95 0 0 83 c1 52 6 91 15 107
19 33 19 88 0 124 -8 15 -15 30 -15 32 0 2 20 12 45 23 76 34 75 112 -2 141
-33 12 -40 19 -33 30 16 25 11 90 -15 190 -24 93 -41 120 -74 120 -26 0 -39
-13 -46 -45 -4 -17 -18 -70 -32 -119 -22 -83 -23 -91 -9 -132 l14 -43 -31 -3
c-39 -4 -63 -41 -53 -82 5 -22 46 -57 79 -69 4 -1 1 -20 -8 -41 -12 -28 -15
-53 -10 -85 3 -25 9 -85 11 -133 l5 -88 -55 0 -56 0 0 3175 0 3175 -115 0
-115 0 0 -42z m2535 -10047 c-7 -6 -625 -38 -631 -32 -2 2 -4 836 -4 1853 l0
1848 118 94 c64 51 207 161 317 243 l200 150 3 -2075 c1 -1141 0 -2078 -3
-2081z m-3433 4127 c66 -22 103 -51 128 -103 l22 -45 -22 -89 c-27 -106 -24
-122 46 -303 33 -84 51 -118 63 -118 9 0 48 34 86 76 64 69 74 76 116 81 113
13 172 -88 119 -205 -24 -53 -111 -139 -178 -175 -27 -15 -78 -32 -113 -39
-57 -12 -64 -16 -67 -38 -2 -17 6 -34 22 -49 27 -25 60 -30 114 -17 l32 8 0
-99 c0 -91 -2 -99 -23 -109 -12 -6 -107 -57 -212 -113 -174 -92 -422 -211
-443 -211 -4 0 -13 18 -18 39 l-11 40 51 12 c77 17 245 84 312 124 104 62 151
134 112 173 -19 19 -34 15 -97 -28 -111 -76 -260 -117 -464 -126 -133 -7 -241
6 -266 31 -12 12 -16 44 -18 146 -2 120 -1 130 15 124 84 -32 218 -25 311 16
59 26 121 86 121 117 0 68 -50 81 -114 28 -68 -55 -98 -66 -182 -66 -42 0 -94
5 -115 12 -33 9 -39 15 -39 40 l0 28 77 0 c96 0 113 12 113 82 0 30 -5 50 -12
53 -7 2 -59 7 -115 12 l-102 8 70 125 c89 158 93 179 46 224 l-35 33 29 139
c16 77 33 150 39 163 l11 23 272 -4 c207 -4 283 -9 319 -20z m1918 -737 l0
-119 -52 -39 c-29 -22 -59 -43 -65 -47 -10 -6 -13 29 -13 158 l0 166 65 0 65
0 0 -119z m300 112 c0 -5 -32 -30 -70 -56 l-70 -48 0 50 c0 49 1 50 33 54 59
7 107 7 107 0z m380 -1772 l0 -1778 -197 -7 c-214 -8 -233 -10 -233 -31 0 -7
-25 -63 -55 -124 -134 -268 -296 -410 -580 -510 -51 -19 -99 -30 -112 -26 -30
7 -45 38 -41 82 l3 36 117 38 c209 67 309 128 430 258 151 163 239 395 273
720 17 160 20 786 5 926 -26 237 -83 443 -171 624 -45 93 -62 115 -148 200
-123 122 -249 212 -423 301 -76 39 -140 75 -143 79 -2 5 6 16 18 24 13 8 146
112 295 231 150 119 274 216 277 216 3 0 5 -181 5 -403 l0 -403 36 -35 c20
-18 56 -60 80 -93 l44 -58 0 559 0 559 68 55 c179 143 434 339 443 339 5 0 9
-684 9 -1779z m-3497 1158 c7 -84 36 -149 82 -186 l33 -27 -19 -38 c-24 -46
-22 -45 -304 -158 -264 -105 -284 -115 -308 -144 -26 -30 -57 -97 -57 -123 0
-36 38 -126 80 -192 l40 -62 -188 -302 c-193 -308 -340 -568 -443 -781 l-58
-119 -70 -38 c-92 -49 -126 -73 -190 -131 l-53 -48 44 0 c114 0 271 -69 375
-164 76 -70 123 -137 123 -178 0 -39 -32 -68 -75 -68 -30 0 -40 7 -85 63 -61
76 -123 125 -210 166 -86 41 -156 54 -266 49 -82 -3 -100 -8 -168 -42 -192
-94 -326 -291 -326 -475 0 -71 27 -146 55 -157 24 -9 18 -19 -27 -49 -120 -80
-246 -235 -278 -345 -35 -118 -42 -304 -47 -1139 l-4 -804 -38 -28 c-49 -35
-83 -79 -118 -154 l-28 -60 -3 -292 c-3 -274 -5 -293 -22 -293 -17 0 -18 39
-25 808 -4 444 -5 1151 -1 1572 3 421 6 1162 6 1648 l0 883 83 -7 c154 -12
247 20 436 151 l111 77 0 -677 0 -677 46 46 c25 26 66 60 90 77 l44 30 0 657
0 658 108 76 c103 72 419 278 428 278 2 0 4 -287 4 -637 0 -395 4 -633 9 -627
5 5 46 77 90 159 l81 150 0 540 1 540 272 177 272 177 3 -48 3 -48 78 38 78
38 -5 55 -4 54 163 110 c90 61 167 111 170 111 3 1 9 -31 12 -70z m1824 19
c30 -28 30 -72 1 -99 -13 -11 -84 -60 -158 -109 -233 -152 -290 -217 -290
-329 0 -33 -3 -66 -6 -75 -3 -9 -35 -30 -71 -48 -36 -17 -87 -51 -113 -75 -58
-52 -81 -106 -104 -248 -15 -86 -21 -104 -45 -126 -17 -16 -47 -30 -72 -34
-104 -17 -181 -83 -220 -185 -55 -145 -170 -672 -191 -880 l-13 -124 -73 -22
-72 -22 0 42 c0 142 68 512 151 823 68 256 98 323 171 395 59 58 141 108 177
108 26 0 27 3 46 96 30 147 91 244 216 340 50 38 59 50 59 77 0 96 110 232
288 357 97 69 257 160 281 160 8 0 25 -10 38 -22z m-1762 -565 c-12 -84 -15
-87 -129 -133 l-106 -42 19 -27 c67 -95 106 -237 98 -361 -3 -47 -55 -335
-116 -640 -93 -471 -120 -619 -157 -875 -3 -22 -16 -38 -47 -58 -23 -15 -53
-35 -66 -45 l-24 -17 6 105 c11 176 57 474 113 733 46 213 119 599 137 722 23
153 -5 279 -95 428 -26 44 -48 83 -48 87 0 6 396 168 414 169 4 1 5 -20 1 -46z
m1880 31 c44 -21 60 -63 41 -109 -22 -51 -64 -59 -285 -52 -215 7 -234 13
-239 85 -3 34 2 47 22 67 l25 25 202 0 c162 0 207 -3 234 -16z m510 -195 c31
-11 68 -32 83 -45 l27 -23 -50 -1 c-146 -1 -302 -71 -433 -195 -98 -91 -125
-102 -162 -65 -11 11 -20 33 -20 51 0 26 16 46 93 123 158 157 315 210 462
155z m-735 -127 l23 -19 -2 -899 c-2 -902 2 -1059 35 -1304 32 -235 116 -570
188 -744 20 -47 96 -204 170 -348 149 -290 211 -435 250 -578 59 -219 59 -221
63 -717 l4 -463 -75 0 -75 0 -4 463 c-3 427 -5 469 -25 557 -35 157 -81 276
-179 465 -161 311 -270 536 -308 639 -67 180 -129 434 -170 691 -22 139 -38
966 -32 1674 l5 555 26 23 c33 28 76 30 106 5z m-1365 -261 l57 -54 -6 -66
c-4 -36 -26 -237 -51 -446 -24 -209 -51 -461 -61 -560 -9 -99 -22 -185 -28
-191 -11 -11 -100 -44 -118 -44 -15 0 12 327 53 649 32 253 66 557 76 689 3
45 9 81 14 80 4 -2 33 -27 64 -57z m-3132 -5222 c-5 -3 -81 -9 -170 -12 l-163
-6 0 2057 0 2058 46 49 c25 27 60 81 79 120 33 69 43 109 85 329 23 122 56
211 97 265 l28 36 3 -2444 c1 -1345 -1 -2448 -5 -2452z m5243 4532 c139 -29
194 -62 194 -117 0 -25 -7 -38 -26 -50 -24 -16 -31 -16 -138 9 -82 20 -140 27
-210 27 -90 0 -99 2 -121 25 -31 30 -31 47 -2 81 39 45 157 55 303 25z m-7363
-463 c-11 -22 -11 -33 0 -66 l14 -39 -64 -10 c-34 -5 -63 -8 -63 -6 0 2 7 17
15 33 15 29 11 85 -6 96 -14 8 0 24 22 24 11 0 22 6 25 13 4 12 11 11 37 -2
31 -15 32 -17 20 -43z m1635 -2070 l-3 -2033 -60 -6 c-33 -3 -62 -4 -65 -2 -2
2 -6 914 -8 2027 l-5 2023 59 10 c33 6 65 11 72 12 10 1 12 -408 10 -2031z
m5457 1991 c139 -43 273 -128 325 -208 35 -53 37 -70 9 -105 -34 -43 -68 -35
-145 34 -113 102 -266 160 -425 160 l-59 0 0 69 c0 46 4 71 13 75 27 13 214
-3 282 -25z m-5735 -2015 l0 -2006 -27 6 c-16 3 -65 10 -110 17 l-83 11 0
1974 0 1974 23 5 c55 12 125 23 160 24 l37 1 0 -2006z m4940 1911 c0 -41 -1
-75 -2 -75 -44 -5 -570 -39 -610 -40 -55 0 -58 1 -64 28 -3 15 -10 42 -16 60
-6 19 -6 37 -2 42 5 4 115 17 244 29 300 27 302 27 383 29 l67 2 0 -75z
m-5310 -1906 l0 -1951 -65 7 c-35 3 -77 10 -92 14 l-28 7 -2 1922 -3 1921 33
6 c17 3 55 9 82 14 28 5 56 9 63 10 9 1 12 -395 12 -1950z m-330 -2 l0 -1903
-82 12 c-46 7 -86 13 -90 13 -5 1 -8 846 -8 1880 l0 1879 68 9 c37 6 77 11 90
12 l22 1 0 -1903z m-320 -2 l0 -1855 -90 0 -90 0 0 1844 0 1845 58 6 c31 4 62
8 67 10 6 2 20 4 33 4 l22 1 0 -1855z m-310 -35 l0 -1839 -43 -11 c-23 -6 -55
-15 -71 -20 -16 -6 -31 -10 -32 -10 -2 0 -4 832 -4 1850 l0 1850 23 5 c35 7
70 12 100 14 l27 1 0 -1840z m5418 1764 c32 -80 60 -210 68 -316 8 -100 14
-93 -83 -82 l-53 7 0 54 c0 64 -19 144 -62 263 -17 46 -27 85 -22 87 5 2 32
14 59 27 28 14 54 23 60 22 5 -1 20 -29 33 -62z m-1915 -122 c95 -41 128 -111
71 -149 -26 -16 -28 -16 -81 13 -49 26 -63 29 -146 29 -83 0 -99 -3 -160 -32
-38 -18 -87 -47 -110 -65 l-40 -32 7 29 c48 198 262 294 459 207z m1712 -328
c289 -68 465 -132 840 -308 l160 -75 -2 -60 c-3 -74 -60 -333 -112 -513 -52
-176 -90 -282 -213 -591 l-103 -258 -36 5 c-31 5 -211 54 -215 59 -1 1 7 56
18 122 16 95 21 169 22 355 1 259 -7 317 -65 456 -65 155 -183 194 -217 70 -9
-30 -5 -52 28 -148 57 -164 67 -252 52 -451 -22 -310 -77 -613 -196 -1081 -68
-264 -209 -773 -218 -781 -1 -1 -106 16 -233 40 -126 23 -274 51 -329 60 l-99
18 6 81 c4 45 13 164 21 266 23 282 44 644 56 965 5 160 17 486 26 725 16 452
33 682 57 761 38 123 176 249 329 298 57 19 157 30 218 24 30 -2 123 -20 205
-39z m-1054 -224 c7 -109 17 -156 44 -197 14 -21 15 -39 5 -141 -17 -192 -30
-503 -30 -729 0 -187 -2 -213 -16 -213 -23 0 -338 107 -384 130 -24 12 -40 28
-40 38 0 9 -18 82 -41 162 -52 188 -62 306 -30 367 30 60 27 88 -19 157 -46
72 -65 121 -74 198 -10 78 -1 88 37 43 74 -90 154 -74 185 37 12 45 4 86 -31
155 -15 29 -27 64 -27 78 l0 25 208 -2 207 -3 6 -105z m-1189 -194 c4 -103 7
-120 36 -178 67 -137 174 -239 330 -315 87 -42 92 -47 92 -76 0 -39 22 -131
60 -257 15 -52 31 -122 34 -155 8 -76 -9 -514 -29 -745 -18 -205 -64 -638 -71
-660 -3 -14 -45 -11 -342 27 -185 23 -339 43 -342 43 -8 0 -1 1025 10 1510 14
591 19 649 58 725 30 60 135 195 151 195 5 0 10 -51 13 -114z m5394 -253 c-4
-4 -567 -22 -573 -18 -1 0 -5 44 -9 97 l-7 96 134 6 c74 4 206 10 294 14 l160
7 3 -99 c1 -54 1 -101 -2 -103z m-2046 -732 l0 -399 -142 -4 c-79 -2 -145 -3
-146 -2 -2 2 24 73 58 160 33 86 98 266 143 400 45 134 83 244 85 244 1 0 2
-180 2 -399z m150 282 c0 -16 7 -145 15 -288 8 -143 19 -368 25 -500 5 -132
17 -384 25 -560 10 -225 15 -566 15 -1147 l0 -828 -70 0 -70 0 0 1043 c1 791
4 1108 16 1317 8 151 17 436 21 633 3 196 10 357 14 357 5 0 9 -12 9 -27z
m-2617 -504 l98 -30 -29 -34 c-17 -18 -40 -60 -53 -92 -20 -52 -23 -79 -27
-270 l-4 -213 -75 0 -75 0 6 43 c3 23 10 105 16 182 19 275 34 445 40 445 3 0
50 -14 103 -31z m50 -1180 l228 -13 -5 -25 c-3 -15 -11 -63 -17 -109 -9 -68
-14 -82 -28 -78 -9 2 -116 17 -239 33 l-223 28 5 29 c3 16 6 58 6 93 0 62 1
65 23 60 12 -3 125 -11 250 -18z m1580 -85 c89 -8 83 8 64 -159 l-12 -100 -30
-3 c-35 -3 -294 23 -301 31 -3 3 9 60 27 127 l32 122 71 -6 c39 -3 106 -9 149
-12z m-2363 -74 c129 -17 248 -33 264 -36 l28 -6 -6 -97 c-3 -53 -6 -99 -6
-102 0 -5 -632 83 -687 96 -22 5 -23 10 -23 104 l0 98 98 -13 c53 -7 203 -27
332 -44z m2905 30 c83 -6 169 -13 193 -16 l42 -5 0 -130 c0 -96 -3 -129 -12
-129 -25 0 -493 43 -497 46 -3 2 11 128 25 217 l6 37 46 -5 c26 -3 115 -9 197
-15z m-1590 -360 c174 -32 461 -88 481 -95 9 -2 8 -21 -2 -67 -21 -92 -34
-119 -53 -114 -9 2 -162 32 -341 67 -179 34 -326 63 -328 64 -3 3 14 123 23
163 4 17 11 21 28 17 12 -2 99 -18 192 -35z m-1732 -31 c12 -6 31 -20 43 -30
15 -15 27 -17 50 -10 16 4 39 5 51 0 24 -9 53 -57 53 -87 0 -17 -6 -19 -49
-14 -48 4 -51 3 -103 -45 l-53 -50 -82 30 -83 30 35 61 c44 79 82 126 101 126
8 0 25 -5 37 -11z m-2305 -60 c81 -11 293 -44 472 -74 179 -29 351 -56 383
-60 31 -4 57 -10 57 -12 0 -3 -14 -34 -30 -68 -72 -150 -160 -600 -163 -832
-1 -51 -3 -93 -5 -93 -2 0 -44 18 -95 39 -398 169 -1161 477 -1329 536 l-78
28 0 51 c0 165 136 373 291 446 140 65 251 74 497 39z m3019 -104 c30 -21 38
-80 18 -137 -12 -36 -13 -53 -4 -75 14 -38 59 -228 59 -252 0 -21 -30 -31
-345 -121 -99 -28 -259 -78 -355 -111 -245 -84 -377 -117 -532 -130 -114 -10
-151 -10 -263 5 -151 19 -305 53 -305 67 0 24 102 108 180 148 47 24 135 73
197 108 l112 64 63 -16 c35 -9 86 -29 115 -45 29 -17 61 -30 72 -30 11 0 46
20 78 45 218 170 342 260 388 282 l54 26 83 -31 c46 -17 100 -33 120 -37 74
-12 137 46 189 174 18 45 38 81 44 81 6 0 20 -7 32 -15z m926 -162 c18 -9 44
-25 60 -37 30 -22 103 -123 95 -131 -3 -3 -26 0 -51 6 -58 16 -117 -5 -171
-60 l-38 -39 -96 46 c-54 24 -99 47 -101 49 -3 2 13 29 35 61 72 104 184 148
267 105z m638 -139 c23 -25 24 -32 25 -167 0 -78 6 -182 12 -232 17 -129 19
-121 -40 -135 -107 -25 -308 -90 -508 -163 -256 -94 -347 -121 -502 -153 -150
-30 -395 -42 -508 -25 -119 19 -250 52 -250 63 0 25 85 87 187 137 118 58 171
92 249 158 28 24 61 43 72 43 12 0 47 -12 79 -26 88 -40 163 -64 196 -64 31 0
169 83 440 266 l137 93 57 -20 c31 -10 81 -22 110 -26 48 -5 57 -3 79 18 46
43 94 161 94 232 0 22 5 27 23 27 13 0 34 -12 48 -26z m-1517 -429 c-10 -8
-59 -35 -109 -61 -49 -25 -117 -63 -150 -85 -44 -27 -108 -52 -235 -90 -541
-160 -507 -153 -810 -153 l-245 -1 -87 31 c-47 17 -107 43 -132 58 -42 25 -46
30 -46 66 0 22 4 40 10 40 5 0 40 -11 77 -25 117 -44 218 -57 448 -57 261 0
333 13 640 117 121 40 294 92 385 115 91 22 188 46 215 54 56 15 67 13 39 -9z
m1573 -350 c-65 -61 -74 -66 -195 -106 -70 -23 -233 -81 -362 -130 -392 -146
-538 -175 -850 -166 -211 6 -318 23 -390 60 -42 21 -45 26 -48 66 -3 37 -1 42
15 37 10 -2 77 -15 148 -27 103 -17 169 -21 320 -21 326 1 418 20 802 165 297
113 348 130 483 161 154 36 156 35 77 -39z"/>
<path d="M5875 9104 c-11 -3 -30 -7 -42 -10 -13 -2 -30 -16 -39 -29 -14 -21
-14 -30 -4 -56 7 -16 26 -37 41 -45 23 -12 29 -21 29 -48 0 -25 8 -43 31 -65
35 -36 48 -38 79 -13 15 12 24 33 27 66 l6 48 41 -7 c23 -4 57 -8 76 -9 33 -1
35 1 38 32 3 28 -3 40 -36 71 -24 23 -57 42 -83 49 -56 14 -138 22 -164 16z"/>
<path d="M6770 15017 c-201 -152 -390 -298 -536 -412 -248 -195 -687 -538
-776 -605 -92 -69 -98 -76 -108 -122 -7 -33 -10 -703 -10 -2080 l0 -2030 41
37 c23 20 75 53 115 72 l74 35 0 628 c0 595 1 628 18 643 10 10 22 17 25 17 4
0 7 -286 7 -636 l0 -637 38 7 c20 3 63 9 95 13 l57 6 0 686 0 686 80 53 c44
28 82 52 85 52 3 0 5 -333 5 -740 l0 -740 23 -4 c12 -3 50 -8 85 -11 35 -3 70
-9 78 -12 12 -4 14 107 14 815 l0 819 88 56 87 56 3 -875 2 -874 23 -4 c12 -3
49 -7 83 -10 33 -3 68 -8 77 -12 16 -6 17 62 17 950 l0 957 78 49 77 50 3
-1035 2 -1035 38 -19 c20 -10 72 -44 115 -75 l77 -55 0 2734 c0 1504 -1 2735
-2 2735 -2 -1 -82 -60 -178 -133z m-50 -551 l0 -205 -80 -55 -80 -55 1 197 1
197 76 62 c42 34 78 62 80 62 1 1 2 -91 2 -203z m-360 -263 l0 -188 -84 -57
c-47 -32 -87 -58 -90 -58 -3 0 -6 78 -6 173 l0 172 78 65 c42 35 79 68 80 72
2 4 8 8 13 8 5 0 9 -81 9 -187z m-380 -277 l0 -165 -82 -55 -83 -55 -3 152
c-1 83 0 157 2 163 5 13 146 124 159 124 4 0 7 -74 7 -164z m740 -856 l0 -900
-77 -51 -78 -51 -3 889 c-1 488 0 893 2 899 4 9 144 113 154 114 1 0 2 -405 2
-900z m-1122 438 l-23 -17 -3 137 c-3 132 -2 138 20 156 l23 18 3 -138 c3
-134 2 -139 -20 -156z m762 -672 l0 -895 -85 -55 c-47 -31 -88 -56 -90 -56 -3
0 -5 400 -5 889 l0 888 88 61 c48 34 88 62 90 62 1 0 2 -402 2 -894z m-382
-252 l-3 -886 -82 -54 -83 -54 0 888 0 887 78 52 c42 28 80 52 85 52 4 1 6
-398 5 -885z m-375 -1121 c-9 -7 -20 -13 -25 -13 -4 0 -8 394 -8 876 l0 876
23 18 22 18 3 -881 c2 -820 1 -883 -15 -894z"/>
<path d="M2925 12986 c-209 -176 -425 -358 -480 -406 -55 -47 -155 -132 -223
-188 -67 -57 -129 -116 -137 -132 -12 -24 -15 -83 -15 -334 l0 -304 26 -31
c29 -34 83 -49 123 -34 20 7 635 497 744 591 16 14 17 -32 17 -946 l0 -962
-200 0 -200 0 0 63 0 62 70 -3 c74 -4 109 9 129 46 7 13 109 370 187 653 4 15
-143 180 -395 444 l-95 99 -100 -106 c-56 -58 -167 -175 -249 -261 l-147 -154
60 -224 c146 -538 128 -496 223 -501 l62 -3 5 -140 c8 -229 2 -225 380 -225
l270 0 0 -1410 c0 -775 1 -1410 3 -1410 12 0 104 50 164 88 l73 47 0 138 c0
134 -1 139 -31 199 -27 53 -31 70 -26 114 3 28 17 80 31 116 l26 65 -2 2362
-3 2363 -181 -148 c-405 -332 -698 -569 -706 -572 -4 -2 -8 47 -8 110 l1 113
142 117 c78 64 221 183 317 265 96 82 276 234 400 338 l225 188 3 -2392 c2
-2274 3 -2393 20 -2386 61 25 153 13 187 -25 10 -11 22 -20 27 -20 4 0 8 1116
8 2480 0 2697 4 2520 -53 2552 -13 8 -75 15 -157 18 l-135 5 -380 -319z m-225
-2002 c0 -4 -78 -282 -106 -376 -5 -16 -19 -18 -119 -18 -100 0 -114 2 -119
18 -16 51 -96 354 -96 362 0 5 33 11 73 13 133 6 367 7 367 1z"/>
<path d="M1631 7546 c-10 -12 -40 -111 -57 -188 -4 -16 0 -40 10 -59 20 -41
21 -39 -14 -39 -20 0 -35 -8 -46 -25 -23 -35 -7 -75 40 -101 21 -12 33 -24 28
-28 -20 -12 -25 -85 -8 -111 13 -20 16 -60 16 -245 l0 -220 66 0 66 0 -2 223
c-2 122 1 230 5 240 4 10 5 45 2 77 -5 57 -4 59 24 70 55 23 52 100 -5 121
-31 11 -32 14 -23 38 7 20 4 52 -12 126 -27 121 -57 161 -90 121z"/>
<path d="M2109 7543 c-8 -10 -25 -60 -38 -111 -19 -75 -21 -98 -12 -118 16
-36 14 -41 -18 -47 -41 -9 -59 -61 -33 -96 15 -20 33 -35 60 -48 2 0 -2 -19
-9 -42 -10 -34 -9 -47 5 -85 15 -38 16 -66 10 -202 l-7 -157 33 6 c18 4 48 7
67 7 l34 0 -2 163 c-1 115 2 170 11 187 12 22 10 76 -5 111 -4 12 2 19 24 27
63 22 67 102 5 122 -19 6 -34 12 -34 13 0 1 4 17 10 36 7 25 4 53 -12 120 -31
124 -55 155 -89 114z"/>
<path d="M672 7233 c-25 -66 -44 -173 -37 -213 6 -35 4 -40 -13 -40 -26 0 -52
-31 -52 -63 0 -32 32 -67 59 -67 18 0 19 -2 5 -27 -16 -33 -18 -62 -4 -98 6
-15 10 -103 11 -196 0 -189 -6 -176 78 -158 l50 10 5 167 c3 92 7 190 8 217 1
28 -1 58 -6 68 -6 13 -4 17 11 17 30 0 63 37 63 70 0 29 -38 70 -65 70 -9 0
-10 9 -2 38 8 30 5 55 -14 132 -24 93 -25 95 -55 98 -26 3 -33 -1 -42 -25z"/>
</g>
</svg>
